<svg xmlns="http://www.w3.org/2000/svg" xmlns:xlink="http://www.w3.org/1999/xlink" width="1024" zoomAndPan="magnify" viewBox="0 0 768 767.999994" height="1024" preserveAspectRatio="xMidYMid meet" version="1.2"><defs><clipPath id="25a8954f80"><path d="M 211 92 L 555 92 L 555 437 L 211 437 Z M 211 92 "/></clipPath><clipPath id="c1d236ece9"><path d="M 383.09375 21.5625 L 747.429688 385.902344 L 386.804688 746.523438 L 22.46875 382.1875 Z M 383.09375 21.5625 "/></clipPath><clipPath id="fdb0ea707d"><path d="M 383.09375 21.5625 L 747.429688 385.902344 L 386.804688 746.523438 L 22.46875 382.1875 Z M 383.09375 21.5625 "/></clipPath><clipPath id="4a63492373"><path d="M 383.09375 21.5625 L 747.429688 385.902344 L 386.804688 746.523438 L 22.46875 382.1875 Z M 383.09375 21.5625 "/></clipPath><clipPath id="464ee66d4c"><path d="M 331 459 L 427 459 L 427 492 L 331 492 Z M 331 459 "/></clipPath><clipPath id="afbdca03ad"><path d="M 383.09375 21.5625 L 747.429688 385.902344 L 386.804688 746.523438 L 22.46875 382.1875 Z M 383.09375 21.5625 "/></clipPath><clipPath id="2457ecc112"><path d="M 383.09375 21.5625 L 747.429688 385.902344 L 386.804688 746.523438 L 22.46875 382.1875 Z M 383.09375 21.5625 "/></clipPath><clipPath id="adee4f6d1a"><path d="M 383.09375 21.5625 L 747.429688 385.902344 L 386.804688 746.523438 L 22.46875 382.1875 Z M 383.09375 21.5625 "/></clipPath><clipPath id="449202c455"><path d="M 358 512 L 415 512 L 415 734 L 358 734 Z M 358 512 "/></clipPath><clipPath id="4d1f8528bc"><path d="M 383.09375 21.5625 L 747.429688 385.902344 L 386.804688 746.523438 L 22.46875 382.1875 Z M 383.09375 21.5625 "/></clipPath><clipPath id="3154200e0a"><path d="M 383.09375 21.5625 L 747.429688 385.902344 L 386.804688 746.523438 L 22.46875 382.1875 Z M 383.09375 21.5625 "/></clipPath><clipPath id="63988759f5"><path d="M 383.09375 21.5625 L 747.429688 385.902344 L 386.804688 746.523438 L 22.46875 382.1875 Z M 383.09375 21.5625 "/></clipPath><clipPath id="043e1e7a80"><path d="M 259 148 L 361 148 L 361 374 L 259 374 Z M 259 148 "/></clipPath><clipPath id="64f597df79"><path d="M 383.09375 21.5625 L 747.429688 385.902344 L 386.804688 746.523438 L 22.46875 382.1875 Z M 383.09375 21.5625 "/></clipPath><clipPath id="616b2dd5a1"><path d="M 383.09375 21.5625 L 747.429688 385.902344 L 386.804688 746.523438 L 22.46875 382.1875 Z M 383.09375 21.5625 "/></clipPath><clipPath id="114805b963"><path d="M 383.09375 21.5625 L 747.429688 385.902344 L 386.804688 746.523438 L 22.46875 382.1875 Z M 383.09375 21.5625 "/></clipPath><clipPath id="c56a127208"><path d="M 226.261719 106.148438 L 541.738281 106.148438 L 541.738281 421.628906 L 226.261719 421.628906 Z M 226.261719 106.148438 "/></clipPath><clipPath id="a08122be88"><path d="M 384 106.148438 C 296.882812 106.148438 226.261719 176.773438 226.261719 263.890625 C 226.261719 351.007812 296.882812 421.628906 384 421.628906 C 471.117188 421.628906 541.738281 351.007812 541.738281 263.890625 C 541.738281 176.773438 471.117188 106.148438 384 106.148438 Z M 384 106.148438 "/></clipPath></defs><g id="e58c6b3909"><g clip-rule="nonzero" clip-path="url(#25a8954f80)"><g clip-rule="nonzero" clip-path="url(#c1d236ece9)"><g clip-rule="nonzero" clip-path="url(#fdb0ea707d)"><g clip-rule="nonzero" clip-path="url(#4a63492373)"><path style=" stroke:none;fill-rule:nonzero;fill:#000000;fill-opacity:1;" d="M 262.003906 385.851562 C 195.019531 318.867188 194.949219 209.933594 261.867188 143.011719 C 328.789062 76.09375 437.714844 76.152344 504.710938 143.148438 C 571.703125 210.144531 571.765625 319.070312 504.84375 385.988281 C 437.925781 452.910156 328.992188 452.839844 262.003906 385.851562 Z M 484.75 163.109375 C 483.089844 161.445312 481.386719 159.828125 479.648438 158.25 C 477.90625 156.671875 476.128906 155.136719 474.3125 153.644531 C 472.496094 152.15625 470.644531 150.710938 468.757812 149.3125 C 466.871094 147.910156 464.953125 146.558594 463 145.253906 C 461.046875 143.945312 459.0625 142.691406 457.046875 141.480469 C 455.03125 140.273438 452.988281 139.117188 450.917969 138.007812 C 448.847656 136.898438 446.75 135.84375 444.625 134.839844 C 442.503906 133.832031 440.355469 132.878906 438.1875 131.980469 C 436.015625 131.082031 433.828125 130.234375 431.617188 129.441406 C 429.40625 128.648438 427.175781 127.914062 424.929688 127.230469 C 422.679688 126.546875 420.417969 125.917969 418.140625 125.347656 C 415.863281 124.777344 413.570312 124.261719 411.269531 123.800781 C 408.964844 123.34375 406.652344 122.9375 404.328125 122.59375 C 402.007812 122.246094 399.675781 121.957031 397.339844 121.726562 C 395.003906 121.496094 392.660156 121.320312 390.316406 121.207031 C 387.972656 121.089844 385.625 121.03125 383.277344 121.027344 C 380.929688 121.027344 378.582031 121.082031 376.238281 121.199219 C 373.890625 121.3125 371.550781 121.484375 369.214844 121.710938 C 366.878906 121.941406 364.546875 122.226562 362.226562 122.570312 C 359.902344 122.914062 357.589844 123.3125 355.289062 123.769531 C 352.984375 124.226562 350.695312 124.738281 348.417969 125.308594 C 346.140625 125.878906 343.878906 126.503906 341.632812 127.183594 C 339.386719 127.863281 337.15625 128.597656 334.945312 129.386719 C 332.738281 130.179688 330.546875 131.023438 328.378906 131.917969 C 326.210938 132.816406 324.0625 133.765625 321.941406 134.769531 C 319.820312 135.773438 317.722656 136.828125 315.652344 137.933594 C 313.582031 139.039062 311.542969 140.195312 309.527344 141.398438 C 307.515625 142.605469 305.53125 143.859375 303.582031 145.164062 C 301.628906 146.46875 299.710938 147.816406 297.828125 149.214844 C 295.941406 150.613281 294.089844 152.054688 292.277344 153.542969 C 290.464844 155.03125 288.6875 156.566406 286.949219 158.140625 C 285.207031 159.71875 283.507812 161.335938 281.851562 162.992188 C 280.191406 164.652344 278.574219 166.351562 276.996094 168.089844 C 275.421875 169.832031 273.890625 171.605469 272.402344 173.421875 C 270.914062 175.234375 269.46875 177.085938 268.070312 178.96875 C 266.675781 180.855469 265.324219 182.773438 264.019531 184.726562 C 262.714844 186.675781 261.460938 188.660156 260.253906 190.671875 C 259.050781 192.6875 257.894531 194.726562 256.789062 196.796875 C 255.683594 198.867188 254.628906 200.964844 253.625 203.085938 C 252.621094 205.207031 251.671875 207.351562 250.777344 209.523438 C 249.878906 211.691406 249.035156 213.878906 248.246094 216.089844 C 247.457031 218.300781 246.71875 220.53125 246.039062 222.777344 C 245.359375 225.023438 244.734375 227.285156 244.164062 229.5625 C 243.597656 231.839844 243.082031 234.128906 242.625 236.433594 C 242.167969 238.734375 241.769531 241.046875 241.425781 243.371094 C 241.082031 245.691406 240.796875 248.023438 240.566406 250.359375 C 240.339844 252.695312 240.167969 255.035156 240.054688 257.378906 C 239.941406 259.726562 239.882812 262.074219 239.886719 264.421875 C 239.886719 266.769531 239.945312 269.113281 240.0625 271.460938 C 240.179688 273.804688 240.351562 276.148438 240.582031 278.484375 C 240.816406 280.820312 241.105469 283.148438 241.449219 285.472656 C 241.796875 287.796875 242.199219 290.109375 242.65625 292.410156 C 243.117188 294.714844 243.632812 297.003906 244.203125 299.285156 C 244.777344 301.5625 245.402344 303.824219 246.085938 306.070312 C 246.769531 308.320312 247.507812 310.546875 248.300781 312.757812 C 249.089844 314.96875 249.9375 317.160156 250.835938 319.332031 C 251.738281 321.5 252.6875 323.648438 253.695312 325.769531 C 254.699219 327.894531 255.757812 329.992188 256.863281 332.0625 C 257.972656 334.132812 259.128906 336.175781 260.339844 338.191406 C 261.546875 340.207031 262.804688 342.191406 264.109375 344.144531 C 265.414062 346.09375 266.765625 348.015625 268.167969 349.902344 C 269.566406 351.789062 271.011719 353.640625 272.503906 355.457031 C 273.992188 357.273438 275.527344 359.050781 277.105469 360.792969 C 278.683594 362.53125 280.300781 364.234375 281.964844 365.894531 C 283.625 367.554688 285.324219 369.175781 287.066406 370.753906 C 288.808594 372.332031 290.585938 373.863281 292.402344 375.355469 C 294.21875 376.84375 296.070312 378.289062 297.957031 379.691406 C 299.84375 381.089844 301.761719 382.441406 303.714844 383.75 C 305.667969 385.054688 307.652344 386.3125 309.667969 387.519531 C 311.679688 388.726562 313.722656 389.886719 315.796875 390.992188 C 317.867188 392.101562 319.964844 393.160156 322.085938 394.164062 C 324.210938 395.167969 326.355469 396.121094 328.527344 397.019531 C 330.695312 397.921875 332.886719 398.765625 335.097656 399.558594 C 337.308594 400.351562 339.539062 401.089844 341.785156 401.769531 C 344.035156 402.453125 346.296875 403.082031 348.574219 403.652344 C 350.851562 404.226562 353.140625 404.742188 355.445312 405.199219 C 357.75 405.660156 360.0625 406.0625 362.382812 406.40625 C 364.707031 406.753906 367.039062 407.042969 369.375 407.273438 C 371.710938 407.503906 374.050781 407.679688 376.398438 407.796875 C 378.742188 407.914062 381.089844 407.972656 383.4375 407.972656 C 385.785156 407.972656 388.132812 407.917969 390.476562 407.804688 C 392.820312 407.691406 395.164062 407.519531 397.5 407.289062 C 399.835938 407.0625 402.164062 406.773438 404.488281 406.429688 C 406.8125 406.089844 409.125 405.6875 411.425781 405.230469 C 413.726562 404.773438 416.019531 404.261719 418.296875 403.691406 C 420.574219 403.125 422.835938 402.5 425.082031 401.816406 C 427.328125 401.136719 429.554688 400.402344 431.765625 399.613281 C 433.976562 398.824219 436.167969 397.980469 438.335938 397.082031 C 440.503906 396.183594 442.648438 395.234375 444.773438 394.230469 C 446.894531 393.230469 448.988281 392.175781 451.058594 391.070312 C 453.128906 389.964844 455.171875 388.808594 457.183594 387.601562 C 459.199219 386.394531 461.179688 385.140625 463.132812 383.835938 C 465.085938 382.535156 467.003906 381.183594 468.886719 379.785156 C 470.773438 378.386719 472.621094 376.945312 474.4375 375.457031 C 476.25 373.96875 478.027344 372.4375 479.765625 370.859375 C 481.503906 369.285156 483.203125 367.667969 484.863281 366.007812 C 486.519531 364.347656 488.136719 362.644531 489.707031 360.90625 C 491.28125 359.167969 492.8125 357.386719 494.296875 355.574219 C 495.78125 353.757812 497.222656 351.90625 498.617188 350.023438 C 500.015625 348.136719 501.363281 346.21875 502.664062 344.265625 C 503.964844 342.3125 505.214844 340.332031 506.421875 338.316406 C 507.625 336.304688 508.777344 334.261719 509.882812 332.191406 C 510.984375 330.121094 512.035156 328.023438 513.039062 325.902344 C 514.039062 323.78125 514.984375 321.636719 515.882812 319.46875 C 516.777344 317.296875 517.621094 315.109375 518.40625 312.898438 C 519.195312 310.6875 519.929688 308.460938 520.609375 306.214844 C 521.285156 303.96875 521.910156 301.707031 522.476562 299.429688 C 523.046875 297.15625 523.558594 294.867188 524.015625 292.5625 C 524.46875 290.261719 524.867188 287.949219 525.210938 285.628906 C 525.554688 283.308594 525.839844 280.976562 526.066406 278.640625 C 526.296875 276.308594 526.464844 273.964844 526.578125 271.621094 C 526.691406 269.277344 526.75 266.933594 526.746094 264.585938 C 526.746094 262.238281 526.6875 259.894531 526.570312 257.546875 C 526.453125 255.203125 526.28125 252.863281 526.050781 250.527344 C 525.816406 248.191406 525.53125 245.863281 525.183594 243.542969 C 524.839844 241.21875 524.4375 238.90625 523.976562 236.605469 C 523.519531 234.300781 523.003906 232.011719 522.433594 229.734375 C 521.863281 227.457031 521.238281 225.195312 520.554688 222.949219 C 519.871094 220.703125 519.136719 218.472656 518.34375 216.265625 C 517.554688 214.054688 516.710938 211.863281 515.8125 209.695312 C 514.914062 207.523438 513.960938 205.378906 512.960938 203.253906 C 511.957031 201.132812 510.902344 199.035156 509.792969 196.964844 C 508.6875 194.894531 507.53125 192.851562 506.324219 190.835938 C 505.121094 188.820312 503.863281 186.835938 502.5625 184.882812 C 501.257812 182.929688 499.90625 181.007812 498.507812 179.121094 C 497.113281 177.234375 495.667969 175.382812 494.179688 173.566406 C 492.691406 171.75 491.160156 169.972656 489.585938 168.230469 C 488.011719 166.488281 486.394531 164.785156 484.734375 163.125 Z M 484.75 163.109375 "/></g></g></g></g><g clip-rule="nonzero" clip-path="url(#464ee66d4c)"><g clip-rule="nonzero" clip-path="url(#afbdca03ad)"><g clip-rule="nonzero" clip-path="url(#2457ecc112)"><g clip-rule="nonzero" clip-path="url(#adee4f6d1a)"><path style=" stroke:none;fill-rule:nonzero;fill:#000000;fill-opacity:1;" d="M 336.613281 486.699219 C 336.066406 486.148438 335.558594 485.5625 335.097656 484.9375 C 334.632812 484.3125 334.21875 483.660156 333.851562 482.976562 C 333.484375 482.289062 333.167969 481.582031 332.90625 480.851562 C 332.644531 480.121094 332.4375 479.375 332.285156 478.613281 C 332.132812 477.851562 332.035156 477.082031 331.996094 476.308594 C 331.957031 475.53125 331.972656 474.757812 332.046875 473.984375 C 332.121094 473.210938 332.253906 472.449219 332.441406 471.695312 C 332.628906 470.941406 332.867188 470.207031 333.164062 469.488281 C 333.457031 468.769531 333.804688 468.078125 334.203125 467.410156 C 334.597656 466.746094 335.042969 466.113281 335.535156 465.511719 C 336.023438 464.910156 336.558594 464.347656 337.128906 463.824219 C 337.703125 463.300781 338.3125 462.824219 338.957031 462.390625 C 339.601562 461.957031 340.273438 461.574219 340.972656 461.242188 C 341.675781 460.90625 342.394531 460.625 343.136719 460.398438 C 343.878906 460.171875 344.636719 460 345.402344 459.882812 C 346.171875 459.765625 346.941406 459.707031 347.71875 459.703125 L 409.796875 459.507812 C 410.332031 459.472656 410.867188 459.464844 411.40625 459.488281 C 411.941406 459.507812 412.476562 459.554688 413.007812 459.628906 C 413.539062 459.703125 414.066406 459.808594 414.589844 459.933594 C 415.109375 460.0625 415.625 460.21875 416.128906 460.398438 C 416.636719 460.582031 417.132812 460.789062 417.617188 461.019531 C 418.101562 461.25 418.574219 461.507812 419.035156 461.785156 C 419.492188 462.066406 419.9375 462.367188 420.363281 462.691406 C 420.792969 463.015625 421.203125 463.363281 421.597656 463.730469 C 421.988281 464.097656 422.363281 464.480469 422.71875 464.886719 C 423.070312 465.289062 423.402344 465.710938 423.714844 466.152344 C 424.027344 466.589844 424.3125 467.042969 424.578125 467.511719 C 424.84375 467.976562 425.082031 468.457031 425.300781 468.949219 C 425.515625 469.441406 425.707031 469.945312 425.871094 470.457031 C 426.035156 470.96875 426.175781 471.484375 426.285156 472.011719 C 426.398438 472.535156 426.484375 473.066406 426.542969 473.601562 C 426.597656 474.136719 426.628906 474.671875 426.632812 475.207031 C 426.636719 475.746094 426.613281 476.28125 426.5625 476.816406 C 426.511719 477.351562 426.433594 477.882812 426.328125 478.40625 C 426.222656 478.933594 426.089844 479.453125 425.929688 479.96875 C 425.773438 480.480469 425.589844 480.984375 425.378906 481.480469 C 425.167969 481.972656 424.9375 482.457031 424.675781 482.925781 C 424.417969 483.398438 424.136719 483.851562 423.832031 484.296875 C 423.523438 484.738281 423.199219 485.160156 422.847656 485.570312 C 422.5 485.976562 422.132812 486.367188 421.742188 486.738281 C 421.355469 487.109375 420.949219 487.460938 420.523438 487.789062 C 420.101562 488.117188 419.660156 488.425781 419.207031 488.707031 C 418.75 488.992188 418.28125 489.253906 417.796875 489.492188 C 417.316406 489.726562 416.824219 489.9375 416.320312 490.125 C 415.816406 490.3125 415.304688 490.472656 414.785156 490.605469 C 414.265625 490.738281 413.738281 490.847656 413.207031 490.929688 C 412.675781 491.007812 412.144531 491.0625 411.605469 491.085938 C 411.070312 491.113281 410.53125 491.113281 409.996094 491.085938 L 347.921875 491.28125 C 345.804688 491.304688 343.769531 490.917969 341.808594 490.121094 C 339.847656 489.328125 338.117188 488.1875 336.613281 486.699219 Z M 336.613281 486.699219 "/></g></g></g></g><g clip-rule="nonzero" clip-path="url(#449202c455)"><g clip-rule="nonzero" clip-path="url(#4d1f8528bc)"><g clip-rule="nonzero" clip-path="url(#3154200e0a)"><g clip-rule="nonzero" clip-path="url(#63988759f5)"><path style=" stroke:none;fill-rule:nonzero;fill:#000000;fill-opacity:1;" d="M 366.066406 725.769531 C 364.785156 724.492188 363.640625 723.101562 362.640625 721.597656 C 361.636719 720.09375 360.796875 718.503906 360.113281 716.828125 C 359.429688 715.15625 358.917969 713.429688 358.578125 711.65625 C 358.242188 709.878906 358.085938 708.089844 358.105469 706.28125 L 359.992188 539.746094 C 360.003906 538.855469 360.058594 537.972656 360.152344 537.089844 C 360.25 536.207031 360.390625 535.328125 360.574219 534.460938 C 360.757812 533.59375 360.980469 532.734375 361.25 531.886719 C 361.515625 531.039062 361.824219 530.210938 362.171875 529.394531 C 362.523438 528.578125 362.910156 527.777344 363.335938 527 C 363.765625 526.222656 364.230469 525.46875 364.730469 524.734375 C 365.230469 524.003906 365.769531 523.296875 366.339844 522.617188 C 366.910156 521.9375 367.511719 521.289062 368.148438 520.667969 C 368.785156 520.046875 369.445312 519.460938 370.140625 518.90625 C 370.832031 518.347656 371.550781 517.828125 372.292969 517.34375 C 373.039062 516.859375 373.804688 516.414062 374.59375 516.003906 C 375.378906 515.597656 376.1875 515.226562 377.011719 514.898438 C 377.835938 514.566406 378.671875 514.277344 379.527344 514.03125 C 380.378906 513.785156 381.242188 513.578125 382.113281 513.414062 C 382.988281 513.253906 383.867188 513.132812 384.75 513.058594 C 385.636719 512.980469 386.523438 512.949219 387.410156 512.960938 C 388.296875 512.96875 389.183594 513.023438 390.066406 513.121094 C 390.949219 513.21875 391.824219 513.359375 392.695312 513.542969 C 393.5625 513.730469 394.421875 513.953125 395.269531 514.222656 C 396.117188 514.492188 396.949219 514.800781 397.765625 515.148438 C 398.582031 515.5 399.378906 515.890625 400.15625 516.316406 C 400.9375 516.746094 401.691406 517.210938 402.425781 517.714844 C 403.15625 518.214844 403.863281 518.753906 404.542969 519.324219 C 405.226562 519.894531 405.875 520.5 406.496094 521.136719 C 407.117188 521.769531 407.707031 522.433594 408.261719 523.128906 C 408.816406 523.820312 409.335938 524.539062 409.824219 525.285156 C 410.308594 526.03125 410.753906 526.796875 411.164062 527.585938 C 411.574219 528.371094 411.945312 529.179688 412.277344 530.003906 C 412.609375 530.828125 412.898438 531.667969 413.144531 532.519531 C 413.394531 533.375 413.601562 534.238281 413.761719 535.109375 C 413.925781 535.984375 414.046875 536.863281 414.125 537.746094 C 414.203125 538.632812 414.234375 539.519531 414.226562 540.40625 L 412.339844 706.941406 C 412.324219 708.269531 412.210938 709.585938 412.003906 710.898438 C 411.792969 712.207031 411.492188 713.496094 411.09375 714.761719 C 410.695312 716.023438 410.210938 717.253906 409.632812 718.449219 C 409.054688 719.640625 408.390625 720.785156 407.644531 721.882812 C 406.898438 722.980469 406.078125 724.015625 405.179688 724.988281 C 404.28125 725.964844 403.316406 726.871094 402.285156 727.703125 C 401.253906 728.535156 400.167969 729.289062 399.023438 729.964844 C 397.882812 730.636719 396.695312 731.222656 395.46875 731.722656 C 394.242188 732.222656 392.980469 732.632812 391.695312 732.945312 C 390.40625 733.261719 389.101562 733.480469 387.78125 733.605469 C 386.460938 733.726562 385.136719 733.753906 383.8125 733.683594 C 382.488281 733.613281 381.175781 733.445312 379.875 733.183594 C 378.574219 732.917969 377.296875 732.5625 376.050781 732.109375 C 374.800781 731.660156 373.59375 731.121094 372.421875 730.492188 C 371.253906 729.867188 370.136719 729.15625 369.070312 728.363281 C 368.003906 727.574219 367.003906 726.707031 366.066406 725.769531 Z M 366.066406 725.769531 "/></g></g></g></g><g clip-rule="nonzero" clip-path="url(#043e1e7a80)"><g clip-rule="nonzero" clip-path="url(#64f597df79)"><g clip-rule="nonzero" clip-path="url(#616b2dd5a1)"><g clip-rule="nonzero" clip-path="url(#114805b963)"><path style=" stroke:none;fill-rule:nonzero;fill:#000000;fill-opacity:1;" d="M 297.683594 349.773438 C 282.035156 334.125 265.828125 308.960938 260.703125 269.808594 C 256.191406 235.441406 270.203125 203.511719 301.191406 177.480469 C 315.570312 165.492188 331.417969 155.925781 348.726562 148.789062 C 349.246094 148.59375 349.777344 148.453125 350.328125 148.363281 C 350.875 148.273438 351.421875 148.238281 351.976562 148.253906 C 352.53125 148.273438 353.078125 148.34375 353.617188 148.472656 C 354.160156 148.597656 354.683594 148.773438 355.1875 149.003906 C 355.691406 149.230469 356.171875 149.503906 356.621094 149.828125 C 357.074219 150.148438 357.488281 150.511719 357.871094 150.917969 C 358.25 151.320312 358.589844 151.757812 358.882812 152.226562 C 359.179688 152.695312 359.425781 153.191406 359.621094 153.707031 C 359.820312 154.226562 359.964844 154.757812 360.058594 155.304688 C 360.152344 155.851562 360.191406 156.402344 360.175781 156.957031 C 360.164062 157.511719 360.09375 158.058594 359.972656 158.597656 C 359.851562 159.140625 359.675781 159.664062 359.453125 160.167969 C 359.226562 160.675781 358.953125 161.15625 358.636719 161.609375 C 358.316406 162.0625 357.957031 162.476562 357.554688 162.859375 C 357.15625 163.242188 356.71875 163.582031 356.253906 163.878906 C 355.785156 164.175781 355.292969 164.425781 354.773438 164.625 C 339.136719 171.171875 324.804688 179.871094 311.78125 190.722656 C 285.304688 213.105469 273.792969 238.957031 277.523438 267.597656 C 286.765625 338.28125 336.804688 356.578125 337.316406 356.753906 C 337.851562 356.929688 338.367188 357.15625 338.859375 357.433594 C 339.347656 357.710938 339.808594 358.035156 340.234375 358.402344 C 340.660156 358.773438 341.046875 359.179688 341.390625 359.625 C 341.738281 360.074219 342.035156 360.546875 342.285156 361.054688 C 342.535156 361.558594 342.734375 362.085938 342.878906 362.628906 C 343.023438 363.175781 343.113281 363.726562 343.148438 364.292969 C 343.183594 364.855469 343.164062 365.414062 343.085938 365.972656 C 343.011719 366.53125 342.878906 367.078125 342.691406 367.609375 C 342.507812 368.140625 342.269531 368.648438 341.984375 369.132812 C 341.695312 369.621094 341.363281 370.070312 340.984375 370.488281 C 340.609375 370.90625 340.191406 371.285156 339.742188 371.621094 C 339.289062 371.953125 338.804688 372.242188 338.296875 372.480469 C 337.785156 372.71875 337.257812 372.90625 336.707031 373.039062 C 336.160156 373.171875 335.605469 373.25 335.042969 373.273438 C 334.480469 373.296875 333.917969 373.261719 333.363281 373.175781 C 332.804688 373.085938 332.261719 372.941406 331.734375 372.742188 C 330.441406 372.328125 314.378906 366.472656 297.683594 349.773438 Z M 297.683594 349.773438 "/></g></g></g></g><g clip-rule="nonzero" clip-path="url(#c56a127208)"><g clip-rule="nonzero" clip-path="url(#a08122be88)"><path style=" stroke:none;fill-rule:nonzero;fill:#ffffff;fill-opacity:1;" d="M 226.261719 106.148438 L 541.738281 106.148438 L 541.738281 421.628906 L 226.261719 421.628906 Z M 226.261719 106.148438 "/></g></g><g style="fill:#000000;fill-opacity:1;"><g transform="translate(270.042, 246.750008)"><path style="stroke:none" d="M 42.875 -44.921875 L 42.875 0 L 31.9375 0 L 31.9375 -18.5 L 14.90625 -18.5 L 14.90625 0 L 3.96875 0 L 3.96875 -44.921875 L 14.90625 -44.921875 L 14.90625 -27.328125 L 31.9375 -27.328125 L 31.9375 -44.921875 Z M 42.875 -44.921875 "/></g></g><g style="fill:#000000;fill-opacity:1;"><g transform="translate(316.823133, 246.750008)"><path style="stroke:none" d="M 1.796875 -17.921875 C 1.796875 -21.585938 2.488281 -24.804688 3.875 -27.578125 C 5.257812 -30.359375 7.144531 -32.492188 9.53125 -33.984375 C 11.925781 -35.472656 14.59375 -36.21875 17.53125 -36.21875 C 20.050781 -36.21875 22.257812 -35.707031 24.15625 -34.6875 C 26.0625 -33.664062 27.523438 -32.320312 28.546875 -30.65625 L 28.546875 -35.71875 L 39.484375 -35.71875 L 39.484375 0 L 28.546875 0 L 28.546875 -5.0625 C 27.472656 -3.394531 25.988281 -2.046875 24.09375 -1.015625 C 22.195312 0.00390625 19.988281 0.515625 17.46875 0.515625 C 14.570312 0.515625 11.925781 -0.238281 9.53125 -1.75 C 7.144531 -3.269531 5.257812 -5.425781 3.875 -8.21875 C 2.488281 -11.019531 1.796875 -14.253906 1.796875 -17.921875 Z M 28.546875 -17.859375 C 28.546875 -20.585938 27.785156 -22.738281 26.265625 -24.3125 C 24.753906 -25.894531 22.910156 -26.6875 20.734375 -26.6875 C 18.554688 -26.6875 16.707031 -25.90625 15.1875 -24.34375 C 13.675781 -22.789062 12.921875 -20.648438 12.921875 -17.921875 C 12.921875 -15.191406 13.675781 -13.023438 15.1875 -11.421875 C 16.707031 -9.828125 18.554688 -9.03125 20.734375 -9.03125 C 22.910156 -9.03125 24.753906 -9.816406 26.265625 -11.390625 C 27.785156 -12.972656 28.546875 -15.128906 28.546875 -17.859375 Z M 28.546875 -17.859375 "/></g></g><g style="fill:#000000;fill-opacity:1;"><g transform="translate(360.276462, 246.750008)"><path style="stroke:none" d="M 14.90625 -29.765625 C 16.1875 -31.722656 17.785156 -33.265625 19.703125 -34.390625 C 21.628906 -35.523438 23.765625 -36.09375 26.109375 -36.09375 L 26.109375 -24.515625 L 23.109375 -24.515625 C 20.378906 -24.515625 18.328125 -23.925781 16.953125 -22.75 C 15.585938 -21.570312 14.90625 -19.515625 14.90625 -16.578125 L 14.90625 0 L 3.96875 0 L 3.96875 -35.71875 L 14.90625 -35.71875 Z M 14.90625 -29.765625 "/></g></g><g style="fill:#000000;fill-opacity:1;"><g transform="translate(387.666785, 246.750008)"><path style="stroke:none" d="M 1.796875 -17.921875 C 1.796875 -21.585938 2.488281 -24.804688 3.875 -27.578125 C 5.257812 -30.359375 7.144531 -32.492188 9.53125 -33.984375 C 11.925781 -35.472656 14.59375 -36.21875 17.53125 -36.21875 C 20.050781 -36.21875 22.257812 -35.707031 24.15625 -34.6875 C 26.0625 -33.664062 27.523438 -32.320312 28.546875 -30.65625 L 28.546875 -35.71875 L 39.484375 -35.71875 L 39.484375 0 L 28.546875 0 L 28.546875 -5.0625 C 27.472656 -3.394531 25.988281 -2.046875 24.09375 -1.015625 C 22.195312 0.00390625 19.988281 0.515625 17.46875 0.515625 C 14.570312 0.515625 11.925781 -0.238281 9.53125 -1.75 C 7.144531 -3.269531 5.257812 -5.425781 3.875 -8.21875 C 2.488281 -11.019531 1.796875 -14.253906 1.796875 -17.921875 Z M 28.546875 -17.859375 C 28.546875 -20.585938 27.785156 -22.738281 26.265625 -24.3125 C 24.753906 -25.894531 22.910156 -26.6875 20.734375 -26.6875 C 18.554688 -26.6875 16.707031 -25.90625 15.1875 -24.34375 C 13.675781 -22.789062 12.921875 -20.648438 12.921875 -17.921875 C 12.921875 -15.191406 13.675781 -13.023438 15.1875 -11.421875 C 16.707031 -9.828125 18.554688 -9.03125 20.734375 -9.03125 C 22.910156 -9.03125 24.753906 -9.816406 26.265625 -11.390625 C 27.785156 -12.972656 28.546875 -15.128906 28.546875 -17.859375 Z M 28.546875 -17.859375 "/></g></g><g style="fill:#000000;fill-opacity:1;"><g transform="translate(431.120114, 246.750008)"><path style="stroke:none" d="M 14.90625 -29.765625 C 16.1875 -31.722656 17.785156 -33.265625 19.703125 -34.390625 C 21.628906 -35.523438 23.765625 -36.09375 26.109375 -36.09375 L 26.109375 -24.515625 L 23.109375 -24.515625 C 20.378906 -24.515625 18.328125 -23.925781 16.953125 -22.75 C 15.585938 -21.570312 14.90625 -19.515625 14.90625 -16.578125 L 14.90625 0 L 3.96875 0 L 3.96875 -35.71875 L 14.90625 -35.71875 Z M 14.90625 -29.765625 "/></g></g><g style="fill:#000000;fill-opacity:1;"><g transform="translate(458.510437, 246.750008)"><path style="stroke:none" d="M 37.625 -18.4375 C 37.625 -17.40625 37.5625 -16.335938 37.4375 -15.234375 L 12.671875 -15.234375 C 12.835938 -13.015625 13.550781 -11.316406 14.8125 -10.140625 C 16.070312 -8.972656 17.617188 -8.390625 19.453125 -8.390625 C 22.179688 -8.390625 24.082031 -9.539062 25.15625 -11.84375 L 36.796875 -11.84375 C 36.203125 -9.488281 35.125 -7.375 33.5625 -5.5 C 32.007812 -3.625 30.054688 -2.148438 27.703125 -1.078125 C 25.359375 -0.015625 22.738281 0.515625 19.84375 0.515625 C 16.34375 0.515625 13.226562 -0.226562 10.5 -1.71875 C 7.769531 -3.21875 5.632812 -5.351562 4.09375 -8.125 C 2.5625 -10.894531 1.796875 -14.140625 1.796875 -17.859375 C 1.796875 -21.566406 2.550781 -24.804688 4.0625 -27.578125 C 5.582031 -30.359375 7.707031 -32.492188 10.4375 -33.984375 C 13.164062 -35.472656 16.300781 -36.21875 19.84375 -36.21875 C 23.300781 -36.21875 26.375 -35.492188 29.0625 -34.046875 C 31.75 -32.597656 33.847656 -30.53125 35.359375 -27.84375 C 36.867188 -25.15625 37.625 -22.019531 37.625 -18.4375 Z M 26.4375 -21.3125 C 26.4375 -23.1875 25.796875 -24.675781 24.515625 -25.78125 C 23.234375 -26.894531 21.632812 -27.453125 19.71875 -27.453125 C 17.875 -27.453125 16.320312 -26.914062 15.0625 -25.84375 C 13.8125 -24.78125 13.035156 -23.269531 12.734375 -21.3125 Z M 26.4375 -21.3125 "/></g></g><g style="fill:#000000;fill-opacity:1;"><g transform="translate(299.854499, 327.000004)"><path style="stroke:none" d="M 47.984375 -39.3125 L 47.984375 0 L 38.421875 0 L 38.421875 -23.578125 L 29.625 0 L 21.890625 0 L 13.046875 -23.625 L 13.046875 0 L 3.46875 0 L 3.46875 -39.3125 L 14.78125 -39.3125 L 25.8125 -12.09375 L 36.734375 -39.3125 Z M 47.984375 -39.3125 "/></g></g><g style="fill:#000000;fill-opacity:1;"><g transform="translate(351.255326, 327.000004)"><path style="stroke:none" d="M 32.921875 -16.125 C 32.921875 -15.226562 32.867188 -14.296875 32.765625 -13.328125 L 11.09375 -13.328125 C 11.238281 -11.390625 11.859375 -9.90625 12.953125 -8.875 C 14.054688 -7.851562 15.414062 -7.34375 17.03125 -7.34375 C 19.414062 -7.34375 21.078125 -8.347656 22.015625 -10.359375 L 32.203125 -10.359375 C 31.679688 -8.304688 30.738281 -6.457031 29.375 -4.8125 C 28.007812 -3.175781 26.300781 -1.890625 24.25 -0.953125 C 22.195312 -0.015625 19.898438 0.453125 17.359375 0.453125 C 14.296875 0.453125 11.566406 -0.195312 9.171875 -1.5 C 6.785156 -2.8125 4.921875 -4.679688 3.578125 -7.109375 C 2.234375 -9.535156 1.5625 -12.375 1.5625 -15.625 C 1.5625 -18.875 2.222656 -21.710938 3.546875 -24.140625 C 4.878906 -26.566406 6.738281 -28.429688 9.125 -29.734375 C 11.519531 -31.046875 14.265625 -31.703125 17.359375 -31.703125 C 20.378906 -31.703125 23.066406 -31.066406 25.421875 -29.796875 C 27.773438 -28.523438 29.613281 -26.710938 30.9375 -24.359375 C 32.257812 -22.003906 32.921875 -19.257812 32.921875 -16.125 Z M 23.125 -18.640625 C 23.125 -20.285156 22.5625 -21.59375 21.4375 -22.5625 C 20.320312 -23.539062 18.925781 -24.03125 17.25 -24.03125 C 15.644531 -24.03125 14.289062 -23.5625 13.1875 -22.625 C 12.082031 -21.6875 11.398438 -20.359375 11.140625 -18.640625 Z M 23.125 -18.640625 "/></g></g><g style="fill:#000000;fill-opacity:1;"><g transform="translate(385.746512, 327.000004)"><path style="stroke:none" d="M 20.890625 -8.125 L 20.890625 0 L 16.015625 0 C 12.546875 0 9.835938 -0.847656 7.890625 -2.546875 C 5.953125 -4.242188 4.984375 -7.015625 4.984375 -10.859375 L 4.984375 -23.296875 L 1.171875 -23.296875 L 1.171875 -31.25 L 4.984375 -31.25 L 4.984375 -38.859375 L 14.5625 -38.859375 L 14.5625 -31.25 L 20.828125 -31.25 L 20.828125 -23.296875 L 14.5625 -23.296875 L 14.5625 -10.75 C 14.5625 -9.820312 14.785156 -9.148438 15.234375 -8.734375 C 15.679688 -8.328125 16.425781 -8.125 17.46875 -8.125 Z M 20.890625 -8.125 "/></g></g><g style="fill:#000000;fill-opacity:1;"><g transform="translate(408.479341, 327.000004)"><path style="stroke:none" d="M 13.046875 -26.046875 C 14.171875 -27.753906 15.570312 -29.101562 17.25 -30.09375 C 18.925781 -31.082031 20.789062 -31.578125 22.84375 -31.578125 L 22.84375 -21.453125 L 20.21875 -21.453125 C 17.820312 -21.453125 16.023438 -20.9375 14.828125 -19.90625 C 13.640625 -18.882812 13.046875 -17.082031 13.046875 -14.5 L 13.046875 0 L 3.46875 0 L 3.46875 -31.25 L 13.046875 -31.25 Z M 13.046875 -26.046875 "/></g></g><g style="fill:#000000;fill-opacity:1;"><g transform="translate(432.444001, 327.000004)"><path style="stroke:none" d="M 17.703125 0.453125 C 14.640625 0.453125 11.882812 -0.195312 9.4375 -1.5 C 6.988281 -2.8125 5.0625 -4.679688 3.65625 -7.109375 C 2.257812 -9.535156 1.5625 -12.375 1.5625 -15.625 C 1.5625 -18.832031 2.269531 -21.660156 3.6875 -24.109375 C 5.113281 -26.554688 7.054688 -28.429688 9.515625 -29.734375 C 11.984375 -31.046875 14.75 -31.703125 17.8125 -31.703125 C 20.875 -31.703125 23.632812 -31.046875 26.09375 -29.734375 C 28.5625 -28.429688 30.503906 -26.554688 31.921875 -24.109375 C 33.335938 -21.660156 34.046875 -18.832031 34.046875 -15.625 C 34.046875 -12.414062 33.328125 -9.585938 31.890625 -7.140625 C 30.453125 -4.691406 28.488281 -2.8125 26 -1.5 C 23.519531 -0.195312 20.753906 0.453125 17.703125 0.453125 Z M 17.703125 -7.84375 C 19.523438 -7.84375 21.078125 -8.515625 22.359375 -9.859375 C 23.648438 -11.203125 24.296875 -13.125 24.296875 -15.625 C 24.296875 -18.125 23.671875 -20.046875 22.421875 -21.390625 C 21.171875 -22.734375 19.632812 -23.40625 17.8125 -23.40625 C 15.945312 -23.40625 14.394531 -22.742188 13.15625 -21.421875 C 11.925781 -20.097656 11.3125 -18.164062 11.3125 -15.625 C 11.3125 -13.125 11.914062 -11.203125 13.125 -9.859375 C 14.34375 -8.515625 15.867188 -7.84375 17.703125 -7.84375 Z M 17.703125 -7.84375 "/></g></g></g></svg>