<svg xmlns="http://www.w3.org/2000/svg" xmlns:xlink="http://www.w3.org/1999/xlink" width="1024" zoomAndPan="magnify" viewBox="0 0 768 767.999994" height="1024" preserveAspectRatio="xMidYMid meet" version="1.2"><defs><clipPath id="52eed49dac"><path d="M 211 92 L 555 92 L 555 436 L 211 436 Z M 211 92 "/></clipPath><clipPath id="8175ceced0"><path d="M 383.09375 21.5625 L 747.429688 385.902344 L 386.804688 746.523438 L 22.46875 382.1875 Z M 383.09375 21.5625 "/></clipPath><clipPath id="63fdbd3694"><path d="M 383.09375 21.5625 L 747.429688 385.902344 L 386.804688 746.523438 L 22.46875 382.1875 Z M 383.09375 21.5625 "/></clipPath><clipPath id="ba9f922e4f"><path d="M 331 459 L 427 459 L 427 492 L 331 492 Z M 331 459 "/></clipPath><clipPath id="ab096096f9"><path d="M 383.09375 21.5625 L 747.429688 385.902344 L 386.804688 746.523438 L 22.46875 382.1875 Z M 383.09375 21.5625 "/></clipPath><clipPath id="e5e8214e65"><path d="M 383.09375 21.5625 L 747.429688 385.902344 L 386.804688 746.523438 L 22.46875 382.1875 Z M 383.09375 21.5625 "/></clipPath><clipPath id="65c7535a23"><path d="M 357 512 L 414 512 L 414 734 L 357 734 Z M 357 512 "/></clipPath><clipPath id="2e8a62fd79"><path d="M 383.09375 21.5625 L 747.429688 385.902344 L 386.804688 746.523438 L 22.46875 382.1875 Z M 383.09375 21.5625 "/></clipPath><clipPath id="9364e0226c"><path d="M 383.09375 21.5625 L 747.429688 385.902344 L 386.804688 746.523438 L 22.46875 382.1875 Z M 383.09375 21.5625 "/></clipPath><clipPath id="41e604eaa7"><path d="M 259 148 L 361 148 L 361 374 L 259 374 Z M 259 148 "/></clipPath><clipPath id="954944b237"><path d="M 383.09375 21.5625 L 747.429688 385.902344 L 386.804688 746.523438 L 22.46875 382.1875 Z M 383.09375 21.5625 "/></clipPath><clipPath id="e4290b6bc9"><path d="M 383.09375 21.5625 L 747.429688 385.902344 L 386.804688 746.523438 L 22.46875 382.1875 Z M 383.09375 21.5625 "/></clipPath><clipPath id="b937981ae3"><path d="M 226.261719 106.148438 L 541.738281 106.148438 L 541.738281 421.628906 L 226.261719 421.628906 Z M 226.261719 106.148438 "/></clipPath><clipPath id="9ea65c7525"><path d="M 384 106.148438 C 296.882812 106.148438 226.261719 176.773438 226.261719 263.890625 C 226.261719 351.007812 296.882812 421.628906 384 421.628906 C 471.117188 421.628906 541.738281 351.007812 541.738281 263.890625 C 541.738281 176.773438 471.117188 106.148438 384 106.148438 Z M 384 106.148438 "/></clipPath></defs><g id="50122e8eb3"><g clip-rule="nonzero" clip-path="url(#52eed49dac)"><g clip-rule="nonzero" clip-path="url(#8175ceced0)"><g clip-rule="nonzero" clip-path="url(#63fdbd3694)"><path style=" stroke:none;fill-rule:nonzero;fill:#ffffff;fill-opacity:1;" d="M 261.867188 385.71875 C 194.957031 318.804688 194.949219 209.933594 261.867188 143.011719 C 328.789062 76.09375 437.652344 76.09375 504.574219 143.011719 C 571.492188 209.933594 571.492188 318.796875 504.574219 385.71875 C 437.652344 452.636719 328.78125 452.628906 261.867188 385.71875 Z M 484.613281 162.972656 C 482.953125 161.3125 481.253906 159.695312 479.515625 158.117188 C 477.777344 156.542969 476 155.011719 474.1875 153.519531 C 472.375 152.03125 470.523438 150.589844 468.640625 149.191406 C 466.753906 147.792969 464.835938 146.441406 462.886719 145.140625 C 460.933594 143.835938 458.953125 142.578125 456.9375 141.375 C 454.925781 140.167969 452.886719 139.011719 450.816406 137.90625 C 448.746094 136.796875 446.648438 135.742188 444.527344 134.738281 C 442.40625 133.738281 440.261719 132.785156 438.09375 131.886719 C 435.925781 130.988281 433.738281 130.144531 431.527344 129.355469 C 429.320312 128.566406 427.089844 127.828125 424.84375 127.148438 C 422.601562 126.464844 420.339844 125.839844 418.0625 125.269531 C 415.785156 124.699219 413.496094 124.1875 411.195312 123.726562 C 408.894531 123.269531 406.582031 122.871094 404.261719 122.523438 C 401.941406 122.179688 399.609375 121.894531 397.277344 121.664062 C 394.941406 121.433594 392.601562 121.261719 390.257812 121.144531 C 387.914062 121.03125 385.566406 120.972656 383.222656 120.972656 C 380.875 120.972656 378.527344 121.03125 376.183594 121.144531 C 373.839844 121.261719 371.5 121.433594 369.167969 121.664062 C 366.832031 121.894531 364.503906 122.179688 362.179688 122.523438 C 359.859375 122.871094 357.546875 123.269531 355.246094 123.726562 C 352.945312 124.1875 350.65625 124.699219 348.378906 125.269531 C 346.101562 125.839844 343.84375 126.464844 341.597656 127.148438 C 339.351562 127.828125 337.125 128.566406 334.914062 129.355469 C 332.703125 130.144531 330.515625 130.988281 328.347656 131.886719 C 326.179688 132.785156 324.035156 133.738281 321.914062 134.738281 C 319.792969 135.742188 317.695312 136.796875 315.625 137.90625 C 313.558594 139.011719 311.515625 140.167969 309.503906 141.375 C 307.488281 142.578125 305.507812 143.835938 303.558594 145.140625 C 301.605469 146.441406 299.6875 147.792969 297.800781 149.191406 C 295.917969 150.589844 294.066406 152.03125 292.253906 153.523438 C 290.441406 155.011719 288.664062 156.542969 286.925781 158.117188 C 285.1875 159.695312 283.488281 161.3125 281.828125 162.972656 C 280.167969 164.632812 278.550781 166.328125 276.976562 168.070312 C 275.398438 169.808594 273.867188 171.585938 272.378906 173.398438 C 270.890625 175.210938 269.445312 177.0625 268.046875 178.945312 C 266.648438 180.832031 265.300781 182.75 263.996094 184.699219 C 262.691406 186.652344 261.4375 188.632812 260.230469 190.648438 C 259.023438 192.660156 257.867188 194.699219 256.761719 196.769531 C 255.65625 198.839844 254.601562 200.933594 253.597656 203.058594 C 252.59375 205.179688 251.640625 207.324219 250.746094 209.492188 C 249.847656 211.660156 249.003906 213.847656 248.210938 216.058594 C 247.421875 218.265625 246.683594 220.496094 246.003906 222.742188 C 245.324219 224.984375 244.695312 227.246094 244.125 229.523438 C 243.554688 231.800781 243.042969 234.089844 242.585938 236.390625 C 242.125 238.691406 241.726562 241.003906 241.382812 243.324219 C 241.035156 245.644531 240.75 247.972656 240.519531 250.308594 C 240.289062 252.644531 240.117188 254.984375 240.003906 257.328125 C 239.886719 259.671875 239.828125 262.019531 239.828125 264.363281 C 239.828125 266.710938 239.886719 269.058594 240.003906 271.402344 C 240.117188 273.746094 240.289062 276.085938 240.519531 278.417969 C 240.75 280.753906 241.035156 283.082031 241.382812 285.40625 C 241.726562 287.726562 242.125 290.039062 242.585938 292.339844 C 243.042969 294.640625 243.554688 296.929688 244.125 299.207031 C 244.695312 301.480469 245.324219 303.742188 246.003906 305.988281 C 246.683594 308.234375 247.421875 310.460938 248.210938 312.671875 C 249.003906 314.882812 249.847656 317.070312 250.746094 319.238281 C 251.640625 321.40625 252.59375 323.550781 253.597656 325.671875 C 254.601562 327.792969 255.65625 329.890625 256.761719 331.960938 C 257.867188 334.027344 259.023438 336.070312 260.230469 338.082031 C 261.4375 340.09375 262.691406 342.078125 263.996094 344.027344 C 265.300781 345.980469 266.648438 347.898438 268.046875 349.78125 C 269.445312 351.667969 270.890625 353.515625 272.378906 355.332031 C 273.867188 357.144531 275.398438 358.921875 276.976562 360.660156 C 278.550781 362.398438 280.167969 364.097656 281.828125 365.757812 C 283.488281 367.417969 285.1875 369.035156 286.925781 370.609375 C 288.664062 372.1875 290.441406 373.71875 292.253906 375.207031 C 294.066406 376.695312 295.917969 378.140625 297.800781 379.539062 C 299.6875 380.9375 301.605469 382.285156 303.558594 383.589844 C 305.507812 384.894531 307.488281 386.148438 309.503906 387.355469 C 311.515625 388.5625 313.558594 389.71875 315.625 390.824219 C 317.695312 391.929688 319.792969 392.984375 321.914062 393.988281 C 324.035156 394.992188 326.179688 395.941406 328.347656 396.839844 C 330.515625 397.738281 332.703125 398.582031 334.914062 399.375 C 337.125 400.164062 339.351562 400.902344 341.597656 401.582031 C 343.84375 402.261719 346.101562 402.890625 348.378906 403.457031 C 350.65625 404.027344 352.945312 404.542969 355.246094 405 C 357.546875 405.457031 359.859375 405.859375 362.179688 406.203125 C 364.503906 406.546875 366.832031 406.835938 369.167969 407.066406 C 371.5 407.296875 373.839844 407.46875 376.183594 407.582031 C 378.527344 407.699219 380.875 407.757812 383.222656 407.757812 C 385.566406 407.757812 387.914062 407.699219 390.257812 407.582031 C 392.601562 407.46875 394.941406 407.296875 397.277344 407.066406 C 399.609375 406.835938 401.941406 406.546875 404.261719 406.203125 C 406.582031 405.859375 408.894531 405.457031 411.195312 405 C 413.496094 404.542969 415.785156 404.027344 418.0625 403.457031 C 420.339844 402.890625 422.601562 402.261719 424.84375 401.582031 C 427.089844 400.902344 429.320312 400.164062 431.527344 399.375 C 433.738281 398.582031 435.925781 397.738281 438.09375 396.839844 C 440.261719 395.941406 442.40625 394.992188 444.527344 393.988281 C 446.648438 392.984375 448.746094 391.929688 450.816406 390.824219 C 452.886719 389.71875 454.925781 388.5625 456.9375 387.355469 C 458.953125 386.148438 460.933594 384.894531 462.886719 383.589844 C 464.835938 382.285156 466.753906 380.9375 468.640625 379.539062 C 470.523438 378.140625 472.375 376.695312 474.1875 375.207031 C 476 373.71875 477.777344 372.1875 479.515625 370.609375 C 481.253906 369.035156 482.953125 367.417969 484.613281 365.757812 C 486.269531 364.097656 487.886719 362.398438 489.457031 360.65625 C 491.03125 358.917969 492.5625 357.140625 494.046875 355.324219 C 495.535156 353.507812 496.976562 351.660156 498.371094 349.773438 C 499.765625 347.886719 501.113281 345.96875 502.414062 344.019531 C 503.71875 342.066406 504.96875 340.082031 506.175781 338.070312 C 507.378906 336.058594 508.53125 334.015625 509.636719 331.945312 C 510.742188 329.875 511.792969 327.78125 512.792969 325.660156 C 513.796875 323.539062 514.746094 321.394531 515.640625 319.226562 C 516.539062 317.058594 517.378906 314.871094 518.167969 312.660156 C 518.957031 310.453125 519.691406 308.222656 520.371094 305.980469 C 521.050781 303.734375 521.675781 301.472656 522.246094 299.199219 C 522.8125 296.921875 523.328125 294.632812 523.785156 292.332031 C 524.238281 290.03125 524.640625 287.722656 524.984375 285.402344 C 525.328125 283.082031 525.613281 280.753906 525.84375 278.417969 C 526.074219 276.085938 526.246094 273.746094 526.359375 271.402344 C 526.472656 269.058594 526.53125 266.714844 526.53125 264.371094 C 526.53125 262.023438 526.472656 259.679688 526.359375 257.335938 C 526.242188 254.992188 526.070312 252.65625 525.839844 250.320312 C 525.609375 247.984375 525.324219 245.65625 524.980469 243.335938 C 524.636719 241.015625 524.234375 238.707031 523.777344 236.40625 C 523.320312 234.105469 522.808594 231.816406 522.238281 229.542969 C 521.671875 227.265625 521.046875 225.003906 520.363281 222.761719 C 519.683594 220.515625 518.949219 218.289062 518.160156 216.078125 C 517.371094 213.871094 516.527344 211.683594 515.632812 209.515625 C 514.734375 207.347656 513.785156 205.203125 512.785156 203.082031 C 511.78125 200.960938 510.730469 198.863281 509.625 196.796875 C 508.519531 194.726562 507.367188 192.683594 506.164062 190.671875 C 504.957031 188.660156 503.703125 186.675781 502.402344 184.726562 C 501.101562 182.773438 499.753906 180.855469 498.355469 178.96875 C 496.960938 177.085938 495.519531 175.234375 494.035156 173.417969 C 492.546875 171.605469 491.015625 169.828125 489.445312 168.085938 C 487.871094 166.347656 486.253906 164.648438 484.597656 162.988281 Z M 484.613281 162.972656 "/></g></g></g><g clip-rule="nonzero" clip-path="url(#ba9f922e4f)"><g clip-rule="nonzero" clip-path="url(#ab096096f9)"><g clip-rule="nonzero" clip-path="url(#e5e8214e65)"><path style=" stroke:none;fill-rule:nonzero;fill:#ffffff;fill-opacity:1;" d="M 336.378906 486.464844 C 335.832031 485.914062 335.324219 485.328125 334.863281 484.707031 C 334.402344 484.082031 333.988281 483.429688 333.621094 482.746094 C 333.253906 482.0625 332.941406 481.351562 332.679688 480.621094 C 332.417969 479.890625 332.210938 479.148438 332.058594 478.386719 C 331.90625 477.625 331.808594 476.855469 331.769531 476.082031 C 331.730469 475.308594 331.75 474.53125 331.824219 473.761719 C 331.898438 472.988281 332.03125 472.226562 332.214844 471.472656 C 332.402344 470.71875 332.644531 469.984375 332.941406 469.265625 C 333.238281 468.546875 333.582031 467.855469 333.980469 467.191406 C 334.378906 466.523438 334.820312 465.890625 335.3125 465.289062 C 335.804688 464.6875 336.335938 464.125 336.910156 463.601562 C 337.484375 463.078125 338.089844 462.601562 338.734375 462.167969 C 339.378906 461.734375 340.050781 461.351562 340.753906 461.019531 C 341.453125 460.683594 342.171875 460.402344 342.914062 460.175781 C 343.65625 459.949219 344.410156 459.773438 345.179688 459.660156 C 345.945312 459.542969 346.71875 459.480469 347.492188 459.480469 L 409.535156 459.246094 C 410.070312 459.210938 410.605469 459.207031 411.144531 459.226562 C 411.679688 459.246094 412.214844 459.292969 412.746094 459.367188 C 413.277344 459.441406 413.804688 459.542969 414.324219 459.671875 C 414.847656 459.800781 415.359375 459.957031 415.867188 460.136719 C 416.371094 460.316406 416.867188 460.523438 417.351562 460.753906 C 417.835938 460.984375 418.308594 461.238281 418.765625 461.519531 C 419.226562 461.796875 419.667969 462.101562 420.097656 462.425781 C 420.523438 462.75 420.933594 463.09375 421.328125 463.460938 C 421.71875 463.828125 422.09375 464.210938 422.449219 464.617188 C 422.800781 465.019531 423.132812 465.441406 423.441406 465.878906 C 423.753906 466.316406 424.042969 466.769531 424.304688 467.238281 C 424.570312 467.703125 424.808594 468.183594 425.027344 468.675781 C 425.242188 469.167969 425.429688 469.667969 425.597656 470.179688 C 425.761719 470.691406 425.898438 471.210938 426.011719 471.734375 C 426.121094 472.261719 426.207031 472.789062 426.265625 473.324219 C 426.320312 473.855469 426.351562 474.394531 426.355469 474.929688 C 426.359375 475.464844 426.335938 476.003906 426.28125 476.535156 C 426.230469 477.070312 426.152344 477.601562 426.046875 478.128906 C 425.941406 478.65625 425.808594 479.175781 425.652344 479.6875 C 425.492188 480.199219 425.308594 480.703125 425.097656 481.199219 C 424.890625 481.691406 424.65625 482.175781 424.394531 482.644531 C 424.136719 483.117188 423.855469 483.570312 423.546875 484.011719 C 423.242188 484.453125 422.917969 484.878906 422.566406 485.289062 C 422.21875 485.695312 421.851562 486.085938 421.460938 486.457031 C 421.074219 486.828125 420.667969 487.175781 420.242188 487.507812 C 419.820312 487.835938 419.378906 488.144531 418.921875 488.425781 C 418.46875 488.710938 418 488.972656 417.519531 489.210938 C 417.035156 489.445312 416.542969 489.65625 416.039062 489.84375 C 415.535156 490.03125 415.023438 490.191406 414.503906 490.324219 C 413.984375 490.460938 413.460938 490.566406 412.929688 490.648438 C 412.398438 490.730469 411.863281 490.78125 411.328125 490.808594 C 410.792969 490.835938 410.253906 490.835938 409.71875 490.808594 L 347.675781 491.039062 C 345.566406 491.0625 343.527344 490.675781 341.570312 489.882812 C 339.613281 489.089844 337.882812 487.949219 336.378906 486.464844 Z M 336.378906 486.464844 "/></g></g></g><g clip-rule="nonzero" clip-path="url(#65c7535a23)"><g clip-rule="nonzero" clip-path="url(#2e8a62fd79)"><g clip-rule="nonzero" clip-path="url(#9364e0226c)"><path style=" stroke:none;fill-rule:nonzero;fill:#ffffff;fill-opacity:1;" d="M 365.679688 725.382812 C 364.402344 724.109375 363.261719 722.71875 362.261719 721.21875 C 361.257812 719.714844 360.417969 718.125 359.734375 716.453125 C 359.054688 714.78125 358.542969 713.058594 358.207031 711.28125 C 357.871094 709.507812 357.714844 707.71875 357.738281 705.910156 L 359.71875 539.46875 C 359.726562 538.578125 359.78125 537.695312 359.878906 536.8125 C 359.976562 535.929688 360.117188 535.054688 360.300781 534.1875 C 360.484375 533.316406 360.707031 532.460938 360.976562 531.613281 C 361.242188 530.769531 361.550781 529.9375 361.902344 529.121094 C 362.25 528.304688 362.636719 527.507812 363.066406 526.730469 C 363.492188 525.953125 363.957031 525.195312 364.460938 524.464844 C 364.960938 523.730469 365.496094 523.027344 366.070312 522.347656 C 366.640625 521.667969 367.242188 521.015625 367.878906 520.398438 C 368.511719 519.777344 369.175781 519.1875 369.867188 518.632812 C 370.5625 518.078125 371.28125 517.558594 372.023438 517.074219 C 372.765625 516.589844 373.53125 516.144531 374.320312 515.734375 C 375.109375 515.324219 375.914062 514.953125 376.738281 514.625 C 377.5625 514.292969 378.398438 514.003906 379.253906 513.757812 C 380.105469 513.511719 380.96875 513.304688 381.839844 513.140625 C 382.710938 512.976562 383.589844 512.859375 384.476562 512.78125 C 385.359375 512.703125 386.246094 512.671875 387.132812 512.683594 C 388.019531 512.691406 388.90625 512.746094 389.789062 512.84375 C 390.671875 512.941406 391.546875 513.082031 392.414062 513.265625 C 393.28125 513.449219 394.140625 513.671875 394.988281 513.941406 C 395.832031 514.207031 396.664062 514.515625 397.480469 514.867188 C 398.296875 515.214844 399.09375 515.601562 399.871094 516.03125 C 400.648438 516.457031 401.402344 516.921875 402.136719 517.425781 C 402.867188 517.925781 403.574219 518.460938 404.253906 519.035156 C 404.933594 519.605469 405.582031 520.207031 406.203125 520.84375 C 406.824219 521.476562 407.410156 522.140625 407.96875 522.835938 C 408.523438 523.527344 409.042969 524.246094 409.527344 524.988281 C 410.011719 525.734375 410.457031 526.5 410.867188 527.285156 C 411.277344 528.074219 411.644531 528.878906 411.976562 529.703125 C 412.304688 530.527344 412.59375 531.367188 412.84375 532.21875 C 413.089844 533.070312 413.296875 533.933594 413.460938 534.804688 C 413.621094 535.675781 413.742188 536.554688 413.820312 537.441406 C 413.894531 538.324219 413.929688 539.210938 413.917969 540.097656 L 411.9375 706.542969 C 411.921875 707.867188 411.8125 709.1875 411.601562 710.496094 C 411.394531 711.804688 411.089844 713.09375 410.691406 714.355469 C 410.292969 715.621094 409.804688 716.851562 409.226562 718.042969 C 408.648438 719.238281 407.984375 720.382812 407.238281 721.476562 C 406.492188 722.574219 405.671875 723.609375 404.773438 724.582031 C 403.875 725.558594 402.910156 726.464844 401.878906 727.296875 C 400.847656 728.128906 399.761719 728.882812 398.621094 729.558594 C 397.476562 730.234375 396.292969 730.820312 395.066406 731.320312 C 393.835938 731.820312 392.578125 732.226562 391.289062 732.542969 C 390.003906 732.859375 388.699219 733.078125 387.378906 733.203125 C 386.058594 733.328125 384.738281 733.355469 383.414062 733.285156 C 382.089844 733.214844 380.777344 733.046875 379.476562 732.785156 C 378.175781 732.523438 376.902344 732.167969 375.65625 731.71875 C 374.410156 731.269531 373.203125 730.730469 372.03125 730.101562 C 370.863281 729.476562 369.746094 728.765625 368.683594 727.976562 C 367.621094 727.1875 366.617188 726.320312 365.679688 725.382812 Z M 365.679688 725.382812 "/></g></g></g><g clip-rule="nonzero" clip-path="url(#41e604eaa7)"><g clip-rule="nonzero" clip-path="url(#954944b237)"><g clip-rule="nonzero" clip-path="url(#e4290b6bc9)"><path style=" stroke:none;fill-rule:nonzero;fill:#ffffff;fill-opacity:1;" d="M 297.546875 349.640625 C 281.914062 334.007812 265.734375 308.867188 260.632812 269.738281 C 256.144531 235.390625 270.164062 203.472656 301.148438 177.4375 C 315.527344 165.449219 331.371094 155.882812 348.675781 148.738281 C 349.195312 148.542969 349.726562 148.398438 350.273438 148.308594 C 350.820312 148.21875 351.371094 148.183594 351.925781 148.203125 C 352.476562 148.21875 353.023438 148.292969 353.5625 148.417969 C 354.105469 148.542969 354.625 148.71875 355.132812 148.945312 C 355.636719 149.175781 356.113281 149.449219 356.566406 149.769531 C 357.015625 150.09375 357.433594 150.453125 357.8125 150.859375 C 358.191406 151.261719 358.527344 151.699219 358.824219 152.167969 C 359.117188 152.636719 359.363281 153.128906 359.5625 153.648438 C 359.757812 154.164062 359.902344 154.695312 359.996094 155.242188 C 360.089844 155.789062 360.128906 156.339844 360.113281 156.894531 C 360.097656 157.445312 360.03125 157.992188 359.910156 158.535156 C 359.785156 159.074219 359.613281 159.597656 359.386719 160.105469 C 359.164062 160.609375 358.890625 161.089844 358.570312 161.542969 C 358.253906 161.996094 357.890625 162.414062 357.492188 162.796875 C 357.089844 163.179688 356.65625 163.515625 356.1875 163.8125 C 355.71875 164.113281 355.226562 164.359375 354.710938 164.558594 C 339.078125 171.113281 324.75 179.8125 311.726562 190.667969 C 285.253906 213.054688 273.730469 238.898438 277.445312 267.519531 C 286.640625 338.15625 336.644531 356.417969 337.15625 356.59375 C 337.691406 356.765625 338.203125 356.992188 338.695312 357.269531 C 339.183594 357.546875 339.644531 357.871094 340.070312 358.238281 C 340.496094 358.609375 340.882812 359.015625 341.226562 359.460938 C 341.570312 359.90625 341.867188 360.382812 342.117188 360.886719 C 342.367188 361.390625 342.566406 361.917969 342.710938 362.460938 C 342.855469 363.007812 342.945312 363.558594 342.980469 364.121094 C 343.015625 364.683594 342.996094 365.246094 342.917969 365.804688 C 342.839844 366.359375 342.707031 366.90625 342.523438 367.4375 C 342.335938 367.96875 342.097656 368.476562 341.8125 368.964844 C 341.523438 369.449219 341.191406 369.898438 340.816406 370.316406 C 340.4375 370.734375 340.023438 371.113281 339.570312 371.449219 C 339.117188 371.785156 338.632812 372.070312 338.125 372.308594 C 337.613281 372.550781 337.085938 372.734375 336.539062 372.871094 C 335.992188 373.003906 335.433594 373.082031 334.871094 373.105469 C 334.308594 373.128906 333.75 373.09375 333.191406 373.003906 C 332.636719 372.917969 332.09375 372.773438 331.566406 372.574219 C 330.273438 372.160156 314.226562 366.316406 297.546875 349.640625 Z M 297.546875 349.640625 "/></g></g></g><g clip-rule="nonzero" clip-path="url(#b937981ae3)"><g clip-rule="nonzero" clip-path="url(#9ea65c7525)"><path style=" stroke:none;fill-rule:nonzero;fill:#000000;fill-opacity:1;" d="M 226.261719 106.148438 L 541.738281 106.148438 L 541.738281 421.628906 L 226.261719 421.628906 Z M 226.261719 106.148438 "/></g></g><g style="fill:#ffffff;fill-opacity:1;"><g transform="translate(270.042, 246.750037)"><path style="stroke:none" d="M 42.875 -44.921875 L 42.875 0 L 31.9375 0 L 31.9375 -18.5 L 14.90625 -18.5 L 14.90625 0 L 3.96875 0 L 3.96875 -44.921875 L 14.90625 -44.921875 L 14.90625 -27.328125 L 31.9375 -27.328125 L 31.9375 -44.921875 Z M 42.875 -44.921875 "/></g></g><g style="fill:#ffffff;fill-opacity:1;"><g transform="translate(316.823133, 246.750037)"><path style="stroke:none" d="M 1.796875 -17.921875 C 1.796875 -21.585938 2.488281 -24.804688 3.875 -27.578125 C 5.257812 -30.359375 7.144531 -32.492188 9.53125 -33.984375 C 11.925781 -35.472656 14.59375 -36.21875 17.53125 -36.21875 C 20.050781 -36.21875 22.257812 -35.707031 24.15625 -34.6875 C 26.0625 -33.664062 27.523438 -32.320312 28.546875 -30.65625 L 28.546875 -35.71875 L 39.484375 -35.71875 L 39.484375 0 L 28.546875 0 L 28.546875 -5.0625 C 27.472656 -3.394531 25.988281 -2.046875 24.09375 -1.015625 C 22.195312 0.00390625 19.988281 0.515625 17.46875 0.515625 C 14.570312 0.515625 11.925781 -0.238281 9.53125 -1.75 C 7.144531 -3.269531 5.257812 -5.425781 3.875 -8.21875 C 2.488281 -11.019531 1.796875 -14.253906 1.796875 -17.921875 Z M 28.546875 -17.859375 C 28.546875 -20.585938 27.785156 -22.738281 26.265625 -24.3125 C 24.753906 -25.894531 22.910156 -26.6875 20.734375 -26.6875 C 18.554688 -26.6875 16.707031 -25.90625 15.1875 -24.34375 C 13.675781 -22.789062 12.921875 -20.648438 12.921875 -17.921875 C 12.921875 -15.191406 13.675781 -13.023438 15.1875 -11.421875 C 16.707031 -9.828125 18.554688 -9.03125 20.734375 -9.03125 C 22.910156 -9.03125 24.753906 -9.816406 26.265625 -11.390625 C 27.785156 -12.972656 28.546875 -15.128906 28.546875 -17.859375 Z M 28.546875 -17.859375 "/></g></g><g style="fill:#ffffff;fill-opacity:1;"><g transform="translate(360.276462, 246.750037)"><path style="stroke:none" d="M 14.90625 -29.765625 C 16.1875 -31.722656 17.785156 -33.265625 19.703125 -34.390625 C 21.628906 -35.523438 23.765625 -36.09375 26.109375 -36.09375 L 26.109375 -24.515625 L 23.109375 -24.515625 C 20.378906 -24.515625 18.328125 -23.925781 16.953125 -22.75 C 15.585938 -21.570312 14.90625 -19.515625 14.90625 -16.578125 L 14.90625 0 L 3.96875 0 L 3.96875 -35.71875 L 14.90625 -35.71875 Z M 14.90625 -29.765625 "/></g></g><g style="fill:#ffffff;fill-opacity:1;"><g transform="translate(387.666785, 246.750037)"><path style="stroke:none" d="M 1.796875 -17.921875 C 1.796875 -21.585938 2.488281 -24.804688 3.875 -27.578125 C 5.257812 -30.359375 7.144531 -32.492188 9.53125 -33.984375 C 11.925781 -35.472656 14.59375 -36.21875 17.53125 -36.21875 C 20.050781 -36.21875 22.257812 -35.707031 24.15625 -34.6875 C 26.0625 -33.664062 27.523438 -32.320312 28.546875 -30.65625 L 28.546875 -35.71875 L 39.484375 -35.71875 L 39.484375 0 L 28.546875 0 L 28.546875 -5.0625 C 27.472656 -3.394531 25.988281 -2.046875 24.09375 -1.015625 C 22.195312 0.00390625 19.988281 0.515625 17.46875 0.515625 C 14.570312 0.515625 11.925781 -0.238281 9.53125 -1.75 C 7.144531 -3.269531 5.257812 -5.425781 3.875 -8.21875 C 2.488281 -11.019531 1.796875 -14.253906 1.796875 -17.921875 Z M 28.546875 -17.859375 C 28.546875 -20.585938 27.785156 -22.738281 26.265625 -24.3125 C 24.753906 -25.894531 22.910156 -26.6875 20.734375 -26.6875 C 18.554688 -26.6875 16.707031 -25.90625 15.1875 -24.34375 C 13.675781 -22.789062 12.921875 -20.648438 12.921875 -17.921875 C 12.921875 -15.191406 13.675781 -13.023438 15.1875 -11.421875 C 16.707031 -9.828125 18.554688 -9.03125 20.734375 -9.03125 C 22.910156 -9.03125 24.753906 -9.816406 26.265625 -11.390625 C 27.785156 -12.972656 28.546875 -15.128906 28.546875 -17.859375 Z M 28.546875 -17.859375 "/></g></g><g style="fill:#ffffff;fill-opacity:1;"><g transform="translate(431.120114, 246.750037)"><path style="stroke:none" d="M 14.90625 -29.765625 C 16.1875 -31.722656 17.785156 -33.265625 19.703125 -34.390625 C 21.628906 -35.523438 23.765625 -36.09375 26.109375 -36.09375 L 26.109375 -24.515625 L 23.109375 -24.515625 C 20.378906 -24.515625 18.328125 -23.925781 16.953125 -22.75 C 15.585938 -21.570312 14.90625 -19.515625 14.90625 -16.578125 L 14.90625 0 L 3.96875 0 L 3.96875 -35.71875 L 14.90625 -35.71875 Z M 14.90625 -29.765625 "/></g></g><g style="fill:#ffffff;fill-opacity:1;"><g transform="translate(458.510437, 246.750037)"><path style="stroke:none" d="M 37.625 -18.4375 C 37.625 -17.40625 37.5625 -16.335938 37.4375 -15.234375 L 12.671875 -15.234375 C 12.835938 -13.015625 13.550781 -11.316406 14.8125 -10.140625 C 16.070312 -8.972656 17.617188 -8.390625 19.453125 -8.390625 C 22.179688 -8.390625 24.082031 -9.539062 25.15625 -11.84375 L 36.796875 -11.84375 C 36.203125 -9.488281 35.125 -7.375 33.5625 -5.5 C 32.007812 -3.625 30.054688 -2.148438 27.703125 -1.078125 C 25.359375 -0.015625 22.738281 0.515625 19.84375 0.515625 C 16.34375 0.515625 13.226562 -0.226562 10.5 -1.71875 C 7.769531 -3.21875 5.632812 -5.351562 4.09375 -8.125 C 2.5625 -10.894531 1.796875 -14.140625 1.796875 -17.859375 C 1.796875 -21.566406 2.550781 -24.804688 4.0625 -27.578125 C 5.582031 -30.359375 7.707031 -32.492188 10.4375 -33.984375 C 13.164062 -35.472656 16.300781 -36.21875 19.84375 -36.21875 C 23.300781 -36.21875 26.375 -35.492188 29.0625 -34.046875 C 31.75 -32.597656 33.847656 -30.53125 35.359375 -27.84375 C 36.867188 -25.15625 37.625 -22.019531 37.625 -18.4375 Z M 26.4375 -21.3125 C 26.4375 -23.1875 25.796875 -24.675781 24.515625 -25.78125 C 23.234375 -26.894531 21.632812 -27.453125 19.71875 -27.453125 C 17.875 -27.453125 16.320312 -26.914062 15.0625 -25.84375 C 13.8125 -24.78125 13.035156 -23.269531 12.734375 -21.3125 Z M 26.4375 -21.3125 "/></g></g><g style="fill:#ffffff;fill-opacity:1;"><g transform="translate(299.854499, 327.000033)"><path style="stroke:none" d="M 47.984375 -39.3125 L 47.984375 0 L 38.421875 0 L 38.421875 -23.578125 L 29.625 0 L 21.890625 0 L 13.046875 -23.625 L 13.046875 0 L 3.46875 0 L 3.46875 -39.3125 L 14.78125 -39.3125 L 25.8125 -12.09375 L 36.734375 -39.3125 Z M 47.984375 -39.3125 "/></g></g><g style="fill:#ffffff;fill-opacity:1;"><g transform="translate(351.255326, 327.000033)"><path style="stroke:none" d="M 32.921875 -16.125 C 32.921875 -15.226562 32.867188 -14.296875 32.765625 -13.328125 L 11.09375 -13.328125 C 11.238281 -11.390625 11.859375 -9.90625 12.953125 -8.875 C 14.054688 -7.851562 15.414062 -7.34375 17.03125 -7.34375 C 19.414062 -7.34375 21.078125 -8.347656 22.015625 -10.359375 L 32.203125 -10.359375 C 31.679688 -8.304688 30.738281 -6.457031 29.375 -4.8125 C 28.007812 -3.175781 26.300781 -1.890625 24.25 -0.953125 C 22.195312 -0.015625 19.898438 0.453125 17.359375 0.453125 C 14.296875 0.453125 11.566406 -0.195312 9.171875 -1.5 C 6.785156 -2.8125 4.921875 -4.679688 3.578125 -7.109375 C 2.234375 -9.535156 1.5625 -12.375 1.5625 -15.625 C 1.5625 -18.875 2.222656 -21.710938 3.546875 -24.140625 C 4.878906 -26.566406 6.738281 -28.429688 9.125 -29.734375 C 11.519531 -31.046875 14.265625 -31.703125 17.359375 -31.703125 C 20.378906 -31.703125 23.066406 -31.066406 25.421875 -29.796875 C 27.773438 -28.523438 29.613281 -26.710938 30.9375 -24.359375 C 32.257812 -22.003906 32.921875 -19.257812 32.921875 -16.125 Z M 23.125 -18.640625 C 23.125 -20.285156 22.5625 -21.59375 21.4375 -22.5625 C 20.320312 -23.539062 18.925781 -24.03125 17.25 -24.03125 C 15.644531 -24.03125 14.289062 -23.5625 13.1875 -22.625 C 12.082031 -21.6875 11.398438 -20.359375 11.140625 -18.640625 Z M 23.125 -18.640625 "/></g></g><g style="fill:#ffffff;fill-opacity:1;"><g transform="translate(385.746512, 327.000033)"><path style="stroke:none" d="M 20.890625 -8.125 L 20.890625 0 L 16.015625 0 C 12.546875 0 9.835938 -0.847656 7.890625 -2.546875 C 5.953125 -4.242188 4.984375 -7.015625 4.984375 -10.859375 L 4.984375 -23.296875 L 1.171875 -23.296875 L 1.171875 -31.25 L 4.984375 -31.25 L 4.984375 -38.859375 L 14.5625 -38.859375 L 14.5625 -31.25 L 20.828125 -31.25 L 20.828125 -23.296875 L 14.5625 -23.296875 L 14.5625 -10.75 C 14.5625 -9.820312 14.785156 -9.148438 15.234375 -8.734375 C 15.679688 -8.328125 16.425781 -8.125 17.46875 -8.125 Z M 20.890625 -8.125 "/></g></g><g style="fill:#ffffff;fill-opacity:1;"><g transform="translate(408.479341, 327.000033)"><path style="stroke:none" d="M 13.046875 -26.046875 C 14.171875 -27.753906 15.570312 -29.101562 17.25 -30.09375 C 18.925781 -31.082031 20.789062 -31.578125 22.84375 -31.578125 L 22.84375 -21.453125 L 20.21875 -21.453125 C 17.820312 -21.453125 16.023438 -20.9375 14.828125 -19.90625 C 13.640625 -18.882812 13.046875 -17.082031 13.046875 -14.5 L 13.046875 0 L 3.46875 0 L 3.46875 -31.25 L 13.046875 -31.25 Z M 13.046875 -26.046875 "/></g></g><g style="fill:#ffffff;fill-opacity:1;"><g transform="translate(432.444001, 327.000033)"><path style="stroke:none" d="M 17.703125 0.453125 C 14.640625 0.453125 11.882812 -0.195312 9.4375 -1.5 C 6.988281 -2.8125 5.0625 -4.679688 3.65625 -7.109375 C 2.257812 -9.535156 1.5625 -12.375 1.5625 -15.625 C 1.5625 -18.832031 2.269531 -21.660156 3.6875 -24.109375 C 5.113281 -26.554688 7.054688 -28.429688 9.515625 -29.734375 C 11.984375 -31.046875 14.75 -31.703125 17.8125 -31.703125 C 20.875 -31.703125 23.632812 -31.046875 26.09375 -29.734375 C 28.5625 -28.429688 30.503906 -26.554688 31.921875 -24.109375 C 33.335938 -21.660156 34.046875 -18.832031 34.046875 -15.625 C 34.046875 -12.414062 33.328125 -9.585938 31.890625 -7.140625 C 30.453125 -4.691406 28.488281 -2.8125 26 -1.5 C 23.519531 -0.195312 20.753906 0.453125 17.703125 0.453125 Z M 17.703125 -7.84375 C 19.523438 -7.84375 21.078125 -8.515625 22.359375 -9.859375 C 23.648438 -11.203125 24.296875 -13.125 24.296875 -15.625 C 24.296875 -18.125 23.671875 -20.046875 22.421875 -21.390625 C 21.171875 -22.734375 19.632812 -23.40625 17.8125 -23.40625 C 15.945312 -23.40625 14.394531 -22.742188 13.15625 -21.421875 C 11.925781 -20.097656 11.3125 -18.164062 11.3125 -15.625 C 11.3125 -13.125 11.914062 -11.203125 13.125 -9.859375 C 14.34375 -8.515625 15.867188 -7.84375 17.703125 -7.84375 Z M 17.703125 -7.84375 "/></g></g></g></svg>